<svg width="239" height="287" xmlns="http://www.w3.org/2000/svg" xmlns:xlink="http://www.w3.org/1999/xlink"><defs><filter x="-4.9%" y="-2.2%" width="109.8%" height="108.9%" filterUnits="objectBoundingBox" id="a"><feOffset dy="1" in="SourceAlpha" result="shadowOffsetOuter1"/><feGaussianBlur stdDeviation=".5" in="shadowOffsetOuter1" result="shadowBlurOuter1"/><feColorMatrix values="0 0 0 0 0 0 0 0 0 0 0 0 0 0 0 0 0 0 0.5 0" in="shadowBlurOuter1"/></filter><path d="M38.27 27.881l-3.363-3.328L19.77 9.577c-2.79-2.739-7.293-2.73-10.073.019a7.007 7.007 0 00-.018 9.965l15.136 14.98c.62.613 1.623.613 2.243 0a1.558 1.558 0 000-2.219L11.92 17.342a3.892 3.892 0 010-5.546 3.994 3.994 0 015.606 0l15.14 14.976 3.365 3.328a7.009 7.009 0 01-.002 9.986c-2.788 2.757-7.307 2.757-10.094-.002l-2.802-2.774L7.436 21.78l-1.121-1.11c-3.92-4-3.87-10.37.111-14.31 3.982-3.94 10.422-3.99 14.465-.11l16.818 16.64c.401.396.985.55 1.532.405a1.577 1.577 0 001.122-1.11 1.558 1.558 0 00-.41-1.515L23.132 4.03C17.867-1.156 9.35-1.146 4.095 4.053a13.235 13.235 0 00-.022 18.837l16.819 16.64 2.807 2.774c4.047 3.847 10.462 3.783 14.43-.145a10.121 10.121 0 00.143-14.277z" id="b"/></defs><g fill="none"><path fill="#FFD966" d="M239 287H0V30h191.324L239 66z"/><path fill-opacity=".19" fill="#000" d="M191.294 30l2.752 37.511L239 66z"/><path fill="#EBCA67" d="M191.294 30l3.97 36H239z"/><g transform="rotate(-135 67.592 6.63)"><use fill="#000" filter="url(#a)" xlink:href="#b"/><use fill="#FFF" xlink:href="#b"/></g><path d="M92 30h10.46c-.02 8.508.9 12.424 1.94 14.003 1.56 2.369 7.473 4.024 10.698 2.471 3.226-1.553 5.19-6.635 5.19-11.555V30h8.004c3.61 21.269-.39 32.706-4 34.313-3.61 1.606-14.025.397-31.242-3.628L92 30z" fill="#FFD966"/></g></svg>